<svg width="384" height="299" viewBox="0 0 384 299" fill="none" xmlns="http://www.w3.org/2000/svg">
<path d="M64 128C27.7333 128 0 100.267 0 64C0 27.7333 27.7333 0 64 0C100.267 0 128 27.7333 128 64C128 100.267 100.267 128 64 128ZM64 42.6667C51.2 42.6667 42.6667 51.2 42.6667 64C42.6667 76.8 51.2 85.3333 64 85.3333C76.8 85.3333 85.3333 76.8 85.3333 64C85.3333 51.2 76.8 42.6667 64 42.6667ZM320 170.667H213.333C200.533 170.667 192 162.133 192 149.333C192 136.533 200.533 128 213.333 128H320C332.8 128 341.333 136.533 341.333 149.333C341.333 162.133 332.8 170.667 320 170.667Z" fill="white"/>
<path d="M213.333 298.667C200.533 298.667 192 290.133 192 277.333V42.6667C192 32 196.267 21.3333 204.8 12.8C213.333 4.26666 224 0 234.667 0H362.667C375.467 0 384 8.53333 384 21.3333C384 34.1333 375.467 42.6667 362.667 42.6667H234.667V277.333C234.667 290.133 226.133 298.667 213.333 298.667Z" fill="white"/>
</svg>
