<svg width="61" height="63" viewBox="0 0 61 63" fill="none" xmlns="http://www.w3.org/2000/svg">
<path d="M18.3 9.4416C18.3 4.2336 14.2008 0 9.15813 0C4.11547 0 0 4.2336 0 9.4416C0 14.6496 4.0992 18.8832 9.15813 18.8832C14.1845 18.9 18.3 14.6664 18.3 9.4416ZM9.15813 12.6C7.48267 12.6 6.1 11.1888 6.1 9.4584C6.1 7.728 7.4664 6.3168 9.15813 6.3168C10.8336 6.3168 12.2 7.728 12.2 9.4584C12.2 11.1888 10.8336 12.6 9.15813 12.6ZM43.3832 56.7C33.0051 56.7 24.5789 48.216 24.5789 37.8C24.5789 27.384 33.0051 18.9 43.3832 18.9C48.3608 18.9 53.0456 20.832 56.5917 24.36L61 19.8744C56.2664 15.1704 50.02 12.6 43.3832 12.6C29.5565 12.6 18.3 23.9064 18.3 37.8C18.3 51.6936 29.5565 63 43.3832 63C50.02 63 56.2827 60.4128 61 55.7256L56.5917 51.24C53.0456 54.768 48.3608 56.7 43.3832 56.7Z" fill="white"/>
</svg>
